mtllib iscv2_draw.mtl
usemtl iscv2_Material_u2_v4

v -25.712900 9.694000 0.368467
v -25.712900 0.257726 0.368467
v -16.710001 9.693999 0.368467
v -16.710001 0.257726 0.368467
v -7.707130 28.566500 0.368468
v -7.707129 19.130299 0.368468
v 1.295740 28.566500 0.368468
v 1.295740 19.130301 0.368468
v -10.040000 21.864300 6.334741
v -3.162710 21.864300 6.334741
v -10.040000 21.864300 5.420971
v -3.162710 21.864300 5.420971
v -23.794601 21.864300 4.507201
v -16.917301 21.864302 4.507201
v -23.794601 21.864300 3.593431
v -16.917301 21.864302 3.593431
v 3.539590 5.279999 6.334740
v 3.452090 -3.012130 6.334740
v 3.539590 5.280000 5.420970
v 3.452090 -3.012130 5.420970
v 3.714590 21.864300 4.507201
v 3.627090 13.572100 4.507200
v 3.714590 21.864300 3.593431
v 3.627090 13.572100 3.593431
v -9.950000 -11.304299 6.334740
v -16.607300 -11.304299 6.334740
v -9.950000 -11.304299 5.420969
v -16.607300 -11.304299 5.420969
v 3.364590 -11.304300 4.507199
v -3.292710 -11.304299 4.507199
v 3.364590 -11.304300 3.593430
v -3.292710 -11.304299 3.593430
v -23.529600 5.279999 6.334740
v -23.662100 13.572100 6.334741
v -23.529600 5.280000 5.420970
v -23.662100 13.572100 5.420970
v -23.264599 -11.304299 4.507199
v -23.397099 -3.012130 4.507200
v -23.264599 -11.304299 3.593430
v -23.397099 -3.012130 3.593430
v -17.599899 19.315197 43.393501
v -9.720840 19.315199 43.393501
v -17.599899 14.493998 43.393501
v -9.720840 14.493999 43.393501
v -33.357998 9.672848 43.393501
v -25.479000 9.672848 43.393501
v -33.357998 4.851688 43.393501
v -25.479000 4.851688 43.393501
v 46.364998 12.462098 43.973499
v 48.796799 12.462099 43.973499
v 46.364998 0.577876 43.973499
v 48.796799 0.577876 43.973499
v 41.500351 -11.306172 43.966316
v 43.933201 -11.306402 43.973499
v 41.501404 -23.190582 43.972977
v 43.933201 -23.190601 43.973499
v 50.295403 -2.130002 41.607899
v 50.085400 12.531697 41.607899
v 50.295403 -2.130002 38.660999
v 50.085400 12.531697 38.660999
v 50.715401 -31.453302 35.714100
v 50.588394 -16.787043 35.693020
v 50.790222 -31.450464 32.771633
v 50.322594 -16.839571 32.730209
v 50.290398 -27.428001 31.792698
v 50.233448 -26.378613 31.792658
v 50.290398 -27.428001 30.499598
v 50.230705 -26.378805 30.499531
v 50.395401 -29.527302 29.206497
v 50.342899 -28.477602 29.206497
v 50.380928 -29.512445 27.916954
v 50.352470 -28.487158 27.910801
v 49.999397 -23.474796 31.791159
v 49.928078 -22.545485 31.790369
v 50.022007 -23.473463 30.498716
v 49.973141 -22.543264 30.498455
v 50.180050 -25.328978 29.206448
v 50.126049 -24.399488 29.206430
v 50.185398 -25.328602 27.913399
v 50.132900 -24.399002 27.913399
v 50.384739 -27.500183 25.066929
v 50.317215 -26.423296 25.078745
v 49.824673 -27.280989 22.349400
v 50.095390 -26.349445 22.310896
v 50.395401 -29.527300 19.504099
v 49.996349 -28.445761 19.507988
v 50.395401 -29.527300 16.700998
v 50.342899 -28.477600 16.700998
v 49.838634 -19.388136 31.802992
v 49.725288 -18.332462 31.748117
v 49.990280 -19.347649 30.558172
v 49.980694 -18.238134 30.552008
v 49.975403 -21.610001 29.206499
v 49.922897 -20.505302 29.206499
v 49.975403 -21.610001 27.913401
v 49.922897 -20.505302 27.913401
v 49.570206 -15.452211 31.784420
v 49.570351 -14.569312 31.790630
v 49.651775 -15.443322 30.498688
v 49.608173 -14.567198 30.499914
v 49.773453 -17.190149 29.207457
v 49.763988 -16.308878 29.205608
v 49.766273 -17.191278 27.913322
v 49.731731 -16.312597 27.911407
v 49.687061 -15.434273 25.110098
v 49.567856 -14.571054 25.108496
v 49.784203 -15.410435 22.309547
v 49.566483 -14.580105 22.304895
v 49.765400 -17.191401 19.504101
v 49.753471 -16.301920 19.502689
v 49.765400 -17.191401 16.701000
v 49.712902 -16.316700 16.701000
v 49.660400 -15.442000 13.377899
v 49.607899 -14.567401 13.377899
v 49.660400 -15.441999 10.054799
v 49.607899 -14.567400 10.054799
v 49.765400 -17.191401 6.731659
v 49.712902 -16.316700 6.731659
v 49.765400 -17.191401 3.408559
v 49.712902 -16.316700 3.408559
v 49.660400 -15.441999 2.635459
v 49.607899 -14.567400 2.635459
v 49.660400 -15.441999 1.862359
v 49.607899 -14.567400 1.862359
v 49.765400 -17.191401 1.089249
v 49.712902 -16.316700 1.089249
v 49.765400 -17.191401 0.316150
v 49.712902 -16.316700 0.316150
v 49.870399 -19.400700 2.635459
v 49.817902 -18.296001 2.635459
v 49.870399 -19.400700 1.862359
v 49.817902 -18.296001 1.862359
v 49.975403 -21.609999 1.089249
v 49.922897 -20.505301 1.089249
v 49.975403 -21.609999 0.316150
v 49.922897 -20.505301 0.316150
v 50.275040 -27.412949 13.378404
v 50.274536 -26.414112 13.375509
v 50.020981 -27.255930 10.070608
v 50.318455 -26.439991 10.048217
v 50.390602 -29.525438 6.731716
v 49.740528 -28.245096 6.743260
v 50.394718 -29.527012 3.408626
v 49.750298 -28.210680 3.472782
v 50.080399 -23.469301 2.635459
v 50.027901 -22.539700 2.635459
v 50.080399 -23.469301 1.862359
v 50.027901 -22.539700 1.862359
v 50.186291 -25.328859 1.089136
v 50.132900 -24.399000 1.089249
v 50.185398 -25.328600 0.316150
v 50.132900 -24.399000 0.316150
v 49.879101 -27.267729 2.684271
v 50.177849 -26.359724 2.643169
v 49.892330 -27.297594 1.910447
v 50.122231 -26.342299 1.876741
v 50.395401 -29.527300 1.089249
v 50.270592 -28.456793 1.098426
v 50.395401 -29.527300 0.316151
v 50.342838 -28.477583 0.316159
v 9.365290 18.573999 0.368468
v 9.365290 15.743099 0.368468
v 24.130001 18.573999 0.368468
v 24.129999 15.743100 0.368468
v 38.894699 24.235800 0.368468
v 38.894699 21.404900 0.368468
v 53.659397 24.235800 0.368468
v 53.659401 21.404900 0.368468
v 43.937901 3.574000 0.368467
v 43.937901 -1.224350 0.368467
v 47.260002 3.573999 0.368467
v 47.259998 -1.224350 0.368467
v 50.582100 13.170700 0.368468
v 50.582100 8.372340 0.368467
v 53.904099 13.170701 0.368468
v 53.904099 8.372340 0.368467
v 38.328499 -32.655502 12.740199
v 44.110100 -32.485901 12.740199
v 38.328499 -32.655502 8.919999
v 44.110100 -32.485901 8.919999
v 26.765200 -32.994602 5.099839
v 32.546898 -32.825001 5.099839
v 26.765200 -32.994602 1.279679
v 32.546898 -32.825001 1.279679
v -31.996700 -13.118503 36.722599
v -31.981001 -19.753901 36.722599
v -31.996700 -13.118502 29.980000
v -31.981001 -19.753901 29.980000
v -32.028301 0.152412 23.237400
v -32.012501 -6.483041 23.237400
v -32.028301 0.152412 16.494801
v -32.012501 -6.483041 16.494801
v 8.548480 -35.145500 42.273602
v 31.270302 -34.975899 42.273602
v 8.548480 -35.145500 40.650002
v 31.270302 -34.975899 40.650002
v -36.895100 -35.484600 39.026402
v -14.173300 -35.314999 39.026402
v -36.895100 -35.484600 37.402901
v -14.173300 -35.314999 37.402901
v -11.691501 -33.975502 12.740198
v -4.030860 -33.805901 12.740198
v -11.691501 -33.975502 8.919998
v -4.030860 -33.805901 8.919998
v -27.012800 -34.314602 5.099839
v -19.352200 -34.145000 5.099839
v -27.012800 -34.314602 1.279678
v -19.352200 -34.145000 1.279678
v -19.601500 -33.935501 29.110199
v -16.151701 -33.827900 29.110199
v -19.601500 -33.935501 25.289999
v -16.151701 -33.827900 25.289999
v -26.501101 -34.150597 21.469799
v -23.051300 -34.043003 21.469799
v -26.501101 -34.150597 17.649698
v -23.051300 -34.043003 17.649698
v -31.996700 -32.070900 32.841599
v -31.980999 -35.128700 32.841599
v -31.996700 -32.070900 21.749998
v -31.980999 -35.128700 21.749998
v -32.028301 -25.955198 10.658399
v -32.012501 -29.013000 10.658399
v -32.028301 -25.955198 -0.433109
v -32.012501 -29.013000 -0.433109
v -31.996700 16.479099 40.921600
v -31.980999 12.539298 40.921600
v -32.114014 16.445024 37.507454
v -31.980999 12.539298 37.820000
v -32.019760 24.352417 34.718548
v -31.838179 20.390684 35.182713
v -32.004398 24.347004 31.615017
v -31.983826 20.414770 31.614702
v 6.532360 19.421200 3.568471
v 6.532360 18.423000 3.568471
v 8.231590 19.421202 3.568471
v 8.231590 18.422998 3.568471
v 9.930820 21.417500 3.568471
v 9.930820 20.419399 3.568471
v 11.630100 21.417500 3.568471
v 11.630100 20.419399 3.568471
v -14.350000 23.695698 38.274101
v -23.270800 23.695698 38.274101
v -14.350000 23.695698 33.221001
v -23.270800 23.695698 33.221001
v 3.491550 23.695698 28.167803
v -5.429230 23.695698 28.167803
v 3.491550 23.695698 23.114702
v -5.429230 23.695698 23.114702
v 42.849998 16.895700 12.053001
v 40.326298 16.895700 12.053001
v 42.849998 16.895700 10.621001
v 40.326298 16.895700 10.621001
v 47.897400 16.895700 9.188901
v 45.373699 16.895699 9.188901
v 47.897400 16.895700 7.756841
v 45.373699 16.895699 7.756841
v 43.250000 -6.104260 10.637900
v 41.155300 -6.104260 10.637900
v 43.250000 -6.104260 8.420970
v 41.155300 -6.104260 8.420970
v 47.439301 -6.104260 6.203990
v 45.344700 -6.104261 6.203990
v 47.439301 -6.104260 3.987010
v 45.344700 -6.104260 3.987010
v 41.295002 24.095701 8.642131
v 37.438599 24.095701 8.642131
v 41.295002 24.095701 5.820971
v 37.438599 24.095701 5.820971
v 49.007900 24.095699 2.999801
v 45.151402 24.095699 2.999801
v 49.007900 24.095699 0.178641
v 45.151402 24.095699 0.178641
v 28.804901 -32.998501 21.265598
v 29.260000 -32.973400 21.265598
v 28.804901 -32.998501 20.226498
v 29.260000 -32.973400 20.226498
v 27.894600 -33.048599 19.187399
v 28.349699 -33.023499 19.187399
v 27.894600 -33.048599 18.148298
v 28.349699 -33.023499 18.148298
v -0.395133 -33.598499 31.865599
v 0.060007 -33.573399 31.865599
v -0.395133 -33.598499 30.826498
v 0.060007 -33.573399 30.826498
v -1.305410 -33.648598 29.787397
v -0.850273 -33.623497 29.787397
v -1.305410 -33.648598 28.748299
v -0.850273 -33.623497 28.748299
v -25.712900 -9.178551 0.368467
v -16.709999 -9.178551 0.368467
v -7.707130 9.693999 0.368467
v 1.295740 9.693999 0.368467
v 3.714590 21.864300 6.334741
v 3.714590 21.864300 5.420971
v -10.040000 21.864300 4.507201
v -10.040000 21.864300 3.593431
v 3.364590 -11.304300 6.334740
v 3.364590 -11.304300 5.420969
v 3.539590 5.280000 4.507200
v 3.539590 5.280000 3.593430
v -23.264599 -11.304299 6.334740
v -23.264599 -11.304299 5.420969
v -9.950000 -11.304299 4.507199
v -9.950000 -11.304299 3.593430
v -23.794601 21.864300 6.334741
v -23.794601 21.864300 5.420971
v -23.529600 5.280000 4.507200
v -23.529600 5.280000 3.593430
v -1.853992 19.299078 43.656029
v -1.842228 14.493698 43.523888
v -17.599899 9.672848 43.393501
v -17.599899 4.851688 43.393501
v 51.228603 12.462097 43.973499
v 51.228603 0.577876 43.973499
v 46.365002 -11.306402 43.973499
v 46.364998 -23.190603 43.973499
v 49.875397 27.193298 41.607899
v 49.875397 27.193298 38.660999
v 50.295403 -2.130002 35.714100
v 50.295403 -2.130002 32.767101
v 50.151745 -25.330990 31.792370
v 50.149063 -25.331175 30.499241
v 50.290398 -27.428001 29.206497
v 50.303642 -27.441597 27.910147
v 49.872253 -21.615129 31.790419
v 49.932072 -21.612350 30.498625
v 50.079056 -23.469400 29.206480
v 50.080399 -23.469303 27.913399
v 50.185398 -25.328602 25.110298
v 50.228397 -25.341814 22.304121
v 49.791718 -27.376373 19.512157
v 50.285538 -27.427469 16.700617
v 49.580208 -17.259005 31.726530
v 49.825935 -17.181231 30.505268
v 49.870399 -19.400702 29.206499
v 49.870399 -19.400702 27.913401
v 49.550880 -13.692876 31.792522
v 49.557297 -13.692599 30.499725
v 49.712986 -15.434081 29.204840
v 49.643768 -15.443495 27.913527
v 49.492031 -13.701861 25.108316
v 49.409580 -13.735255 22.301132
v 49.831295 -15.379771 19.503004
v 49.660404 -15.441999 16.701000
v 49.555401 -13.692701 13.377899
v 49.555401 -13.692700 10.054799
v 49.660400 -15.441999 6.731659
v 49.660400 -15.441999 3.408559
v 49.555401 -13.692700 2.635459
v 49.555401 -13.692700 1.862359
v 49.660400 -15.441999 1.089249
v 49.660400 -15.441999 0.316150
v 49.765400 -17.191401 2.635459
v 49.765400 -17.191401 1.862359
v 49.870399 -19.400700 1.089249
v 49.870399 -19.400700 0.316150
v 50.185398 -25.328600 13.377899
v 50.248913 -25.364124 10.052711
v 49.918816 -27.288591 6.738635
v 49.916225 -27.240009 3.450371
v 49.975403 -21.609999 2.635459
v 49.975403 -21.609999 1.862359
v 50.080399 -23.469301 1.089249
v 50.080399 -23.469301 0.316150
v 50.256645 -25.352835 2.627064
v 50.208950 -25.335814 1.859461
v 50.062122 -27.359772 1.117782
v 50.260185 -27.419657 0.320162
v 9.365290 12.912200 0.368468
v 24.129999 12.912200 0.368468
v 38.894699 18.573999 0.368468
v 53.659401 18.573999 0.368468
v 43.937901 -6.022690 0.368467
v 47.260002 -6.022690 0.368467
v 50.582100 3.574000 0.368467
v 53.904099 3.574000 0.368467
v 49.891701 -32.316299 12.740199
v 49.891701 -32.316299 8.919999
v 38.328499 -32.655502 5.099839
v 38.328499 -32.655502 1.279679
v -31.965200 -26.389400 36.722599
v -31.965200 -26.389400 29.979998
v -31.996700 -13.118502 23.237400
v -31.996700 -13.118502 16.494801
v 53.992100 -34.806301 42.273602
v 53.992100 -34.806301 40.650002
v 8.548480 -35.145500 39.026402
v 8.548480 -35.145500 37.402901
v 3.629810 -33.636299 12.740198
v 3.629810 -33.636299 8.919998
v -11.691501 -33.975502 5.099839
v -11.691501 -33.975502 1.279679
v -12.701900 -33.720303 29.110199
v -12.701900 -33.720303 25.289999
v -19.601500 -33.935501 21.469799
v -19.601500 -33.935501 17.649698
v -31.965200 -38.186501 32.841599
v -31.965200 -38.186501 21.749998
v -31.996700 -32.070900 10.658399
v -31.996700 -32.070900 -0.433109
v -31.965199 8.599408 40.921600
v -31.965199 8.599408 37.820000
v -31.996700 16.479099 34.718399
v -31.996700 16.479099 31.616800
v 6.532360 17.424900 3.568471
v 8.231590 17.424900 3.568471
v 9.930820 19.421200 3.568471
v 11.630100 19.421200 3.568471
v -32.191498 23.695698 38.274101
v -32.083927 23.666729 33.218182
v -14.350000 23.695698 28.167803
v -14.350000 23.695698 23.114702
v 37.802597 16.895700 12.053001
v 37.802597 16.895700 10.621001
v 42.849998 16.895700 9.188901
v 42.849998 16.895700 7.756841
v 39.060699 -6.104260 10.637900
v 39.060699 -6.104260 8.420970
v 43.250000 -6.104260 6.203990
v 43.250000 -6.104260 3.987010
v 33.582100 24.095699 8.642131
v 33.582100 24.095699 5.820971
v 41.295002 24.095701 2.999801
v 41.295002 24.095701 0.178641
v 29.715101 -32.948399 21.265598
v 29.715101 -32.948399 20.226498
v 28.804901 -32.998501 19.187399
v 28.804901 -32.998501 18.148298
v 0.515147 -33.548397 31.865599
v 0.515147 -33.548397 30.826498
v -0.395133 -33.598499 29.787397
v -0.395133 -33.598499 28.748299
v -34.715702 0.257726 0.368467
v -34.715702 -9.178550 0.368467
v -16.710001 19.130301 0.368468
v -3.162710 21.864300 7.248511
v 3.714590 21.864300 7.248511
v -16.917301 21.864302 5.420971
v 3.452090 -3.012130 7.248510
v 3.364590 -11.304300 7.248509
v 3.627090 13.572100 5.420970
v -16.607300 -11.304299 7.248509
v -23.264599 -11.304299 7.248509
v -3.292710 -11.304299 5.420969
v -23.662100 13.572100 7.248510
v -23.794601 21.864300 7.248511
v -23.397099 -3.012130 5.420970
v -9.720840 24.136299 43.393501
v -1.841232 24.136755 43.400131
v -25.479000 14.493999 43.393501
v 48.796799 24.346399 43.973499
v 51.228603 24.346397 43.973499
v 43.933201 0.577876 43.973499
v 50.085400 12.531697 44.554798
v 49.875397 27.193298 44.554798
v 50.505398 -16.791702 38.660999
v 50.004086 -26.387568 33.256516
v 50.142986 -25.328550 33.112991
v 50.342899 -28.477602 30.499598
v 49.831127 -22.550528 33.176109
v 49.719475 -21.621946 33.216488
v 50.078354 -24.402922 30.498993
v 50.237900 -26.378302 27.913399
v 49.599113 -28.229147 22.381413
v 49.620190 -18.340481 33.064754
v 49.689369 -17.210033 33.083313
v 49.908741 -20.503864 30.502672
v 49.587208 -14.566728 33.093380
v 49.559971 -13.693280 33.085342
v 49.715313 -16.319033 30.497589
v 49.554913 -14.577120 27.916977
v 49.507355 -13.701247 27.917114
v 49.849518 -16.281548 22.309958
v 49.608177 -14.567348 16.700991
v 49.554825 -13.692812 16.701021
v 49.712902 -16.316700 10.054799
v 49.607899 -14.567400 3.408559
v 49.555401 -13.692700 3.408559
v 49.712902 -16.316700 1.862359
v 49.817902 -18.296001 3.408559
v 49.922897 -20.505301 1.862359
v 50.234356 -26.377913 16.700722
v 50.185398 -25.328600 16.700998
v 49.852898 -28.172886 10.081578
v 50.027901 -22.539700 3.408559
v 49.975403 -21.609999 3.408559
v 50.132900 -24.399000 1.862359
v 50.257278 -26.392881 3.406977
v 50.299397 -25.377596 3.395530
v 50.025261 -28.375502 1.900145
v -5.399410 15.743100 0.368468
v -5.399410 12.912200 0.368468
v 24.130001 21.404900 0.368468
v 40.615902 -1.224350 0.368467
v 40.615898 -6.022690 0.368467
v 47.259998 8.372340 0.368467
v 44.110100 -32.485901 16.560299
v 49.891701 -32.316299 16.560299
v 32.546898 -32.825001 8.919998
v -31.981001 -19.753901 43.465199
v -31.965200 -26.389400 43.465199
v -32.012501 -6.483041 29.980000
v 31.270302 -34.975903 43.897099
v 53.992100 -34.806305 43.897099
v -14.173300 -35.314999 40.650002
v -4.030860 -33.805901 16.560299
v 3.629810 -33.636299 16.560299
v -19.352200 -34.145000 8.919998
v -16.151701 -33.827900 32.930302
v -12.701900 -33.720303 32.930302
v -23.051300 -34.043003 25.289999
v -31.980999 -35.128704 43.933102
v -31.965200 -38.186504 43.933102
v -32.012501 -29.013000 21.749998
v -31.980999 12.539298 44.023201
v -31.965199 8.599408 44.023201
v -32.062370 20.397141 37.640308
v 4.833120 18.423000 3.568471
v 4.833120 17.424900 3.568471
v 8.231590 20.419401 3.568471
v -23.270800 23.695698 43.327301
v -32.191498 23.695698 43.327301
v -5.429230 23.695698 33.221001
v 40.326298 16.895700 13.485101
v 37.802597 16.895700 13.485101
v 45.373699 16.895699 10.621001
v 41.155300 -6.104260 12.854900
v 39.060699 -6.104260 12.854900
v 45.344700 -6.104261 8.420970
v 37.438599 24.095701 11.463301
v 33.582100 24.095699 11.463301
v 45.151402 24.095699 5.820971
v 29.260000 -32.973400 22.304699
v 29.715101 -32.948399 22.304699
v 28.349699 -33.023499 20.226498
v 0.060007 -33.573399 32.904701
v 0.515147 -33.548397 32.904701
v -0.850273 -33.623497 30.826498
v -34.715702 9.694000 0.368467
v -16.709999 28.566500 0.368468
v -10.040000 21.864300 7.248511
v 3.539590 5.279999 7.248510
v -9.950000 -11.304299 7.248509
v -23.529600 5.279999 7.248510
v -17.599899 24.136297 43.393501
v -33.357998 14.493999 43.393501
v 46.364998 24.346399 43.973499
v 41.499809 0.577293 43.970848
v 50.295403 -2.130002 44.554798
v 50.715401 -31.453302 38.660999
v 50.161125 -27.441717 33.180191
v 50.395401 -29.527302 30.499598
v 50.011295 -23.471340 33.110321
v 50.320530 -29.504473 22.310398
v 49.696838 -19.419086 33.093002
v 49.610916 -15.442190 33.102028
v 49.765400 -17.191402 22.307199
v 49.765400 -17.191401 10.054799
v 49.870399 -19.400700 3.408559
v 50.389954 -29.523853 10.055024
v 50.080399 -23.469301 3.408559
v 50.395401 -29.527300 1.862359
v -5.399410 18.573999 0.368468
v 24.129999 24.235800 0.368468
v 40.615902 3.574000 0.368467
v 47.259998 13.170701 0.368468
v 38.328499 -32.655502 16.560299
v 26.765200 -32.994602 8.919998
v -31.996700 -13.118503 43.465199
v -32.028301 0.152412 29.980000
v 8.548480 -35.145504 43.897099
v -36.895100 -35.484600 40.650002
v -11.691501 -33.975502 16.560299
v -27.012800 -34.314602 8.919998
v -19.601500 -33.935501 32.930302
v -26.501101 -34.150597 25.289999
v -31.996700 -32.070904 43.933102
v -32.028301 -25.955198 21.749998
v -31.996700 16.479099 44.023201
v -32.028297 24.358898 37.820000
v 4.833120 19.421200 3.568471
v 8.231590 21.417500 3.568471
v -14.350000 23.695698 43.327301
v 3.492050 23.670282 33.220524
v 42.849998 16.895700 13.485101
v 47.897400 16.895700 10.621001
v 43.250000 -6.104260 12.854900
v 47.439301 -6.104260 8.420970
v 41.295002 24.095701 11.463301
v 49.007900 24.095699 5.820971
v 28.804901 -32.998501 22.304699
v 27.894600 -33.048599 20.226498
v -0.395133 -33.598499 32.904701
v -1.305410 -33.648598 30.826498
v -25.712900 19.130301 0.368468
v -7.707130 0.257726 0.368467
v -7.707130 -9.178550 0.368467
v 1.295740 0.257726 0.368467
v 1.295740 -9.178550 0.368467
v -16.917301 21.864302 6.334741
v -3.162710 21.864300 4.507201
v -3.162710 21.864300 3.593431
v 3.627090 13.572100 6.334741
v 3.452090 -3.012130 4.507200
v 3.452090 -3.012130 3.593430
v -3.292710 -11.304299 6.334740
v -16.607300 -11.304299 4.507199
v -16.607300 -11.304299 3.593430
v -23.397099 -3.012130 6.334740
v -23.662100 13.572100 4.507200
v -23.662100 13.572100 3.593431
v -25.479000 19.315197 43.393501
v -9.720840 9.672848 43.393501
v -1.841849 9.672839 43.396687
v -9.720840 4.851688 43.393501
v -1.841780 4.851688 43.393501
v 43.933201 12.462097 43.973499
v 48.796799 -11.306402 43.973499
v 51.228600 -11.306402 43.973499
v 48.796803 -23.190601 43.973499
v 51.228600 -23.190601 43.973499
v 50.505398 -16.791702 41.607899
v 50.085400 12.531697 35.714100
v 49.875397 27.193298 35.714100
v 50.081902 12.531572 32.766953
v 49.875397 27.193298 32.767101
v 50.342899 -28.477602 31.792698
v 50.237759 -26.378311 29.206495
v 50.072567 -24.403347 31.791958
v 50.027878 -22.539703 29.206497
v 50.027901 -22.539701 27.913399
v 50.152454 -28.333532 25.185953
v 49.886547 -26.346058 19.508448
v 50.094414 -25.321266 19.504095
v 49.849728 -20.504364 31.796585
v 49.818527 -18.295742 29.206755
v 49.817902 -18.296003 27.913401
v 49.567165 -16.350052 31.764908
v 49.622478 -14.567765 29.207613
v 49.538788 -13.696335 29.207798
v 49.746262 -16.310369 25.111204
v 49.692738 -14.539048 19.504322
v 49.506947 -13.715368 19.504059
v 49.712902 -16.316700 13.377899
v 49.607899 -14.567400 6.731659
v 49.555401 -13.692700 6.731659
v 49.712902 -16.316700 2.635459
v 49.607899 -14.567400 1.089249
v 49.555401 -13.692700 1.089249
v 49.607899 -14.567400 0.316150
v 49.555401 -13.692700 0.316150
v 49.922897 -20.505301 2.635459
v 49.817902 -18.296001 1.089249
v 49.817902 -18.296001 0.316150
v 50.287376 -28.423307 13.381308
v 50.250881 -26.388165 6.730934
v 50.282764 -25.364784 6.729550
v 50.132900 -24.399000 2.635459
v 50.027901 -22.539700 1.089249
v 50.027901 -22.539700 0.316150
v 49.831623 -28.290161 2.693719
v 50.150604 -26.352659 1.100338
v 50.224564 -26.374659 0.317943
v 9.365290 21.404900 0.368468
v 38.894699 15.743100 0.368468
v 38.894699 12.912199 0.368468
v 53.659397 15.743100 0.368468
v 53.659401 12.912199 0.368468
v 43.937901 8.372339 0.368467
v 50.582100 -1.224350 0.368467
v 50.582100 -6.022690 0.368467
v 53.904099 -1.224350 0.368467
v 53.904099 -6.022690 0.368467
v 32.546898 -32.825001 12.740198
v 44.110100 -32.485901 5.099839
v 49.891701 -32.316299 5.099839
v 44.110100 -32.485901 1.279679
v 49.891701 -32.316299 1.279679
v -32.012501 -6.483041 36.722599
v -31.981001 -19.753901 23.237400
v -31.965200 -26.389400 23.237398
v -31.981001 -19.753899 16.494801
v -31.965200 -26.389399 16.494799
v -14.173300 -35.314999 42.273602
v 31.270302 -34.975899 39.026402
v 53.992100 -34.806301 39.026402
v 31.270302 -34.975899 37.402901
v 53.992100 -34.806301 37.402901
v -19.352200 -34.145000 12.740198
v -4.030860 -33.805901 5.099839
v 3.629810 -33.636299 5.099839
v -4.030860 -33.805901 1.279679
v 3.629810 -33.636299 1.279679
v -23.051300 -34.043003 29.110199
v -16.151701 -33.827900 21.469799
v -12.701900 -33.720303 21.469799
v -16.151701 -33.827900 17.649698
v -12.701900 -33.720303 17.649698
v -32.012501 -29.013002 32.841599
v -31.980999 -35.128700 10.658398
v -31.965200 -38.186501 10.658398
v -31.980999 -35.128700 -0.433110
v -31.965200 -38.186501 -0.433110
v -32.012501 20.418997 40.921600
v -31.980999 12.539298 34.718399
v -31.604374 8.594950 34.715572
v -31.873821 12.541969 31.621969
v -31.555658 8.588511 31.613993
v 6.532360 20.419399 3.568471
v 9.930820 18.423000 3.568471
v 9.930820 17.424900 3.568471
v 11.630100 18.423000 3.568471
v 11.654672 17.425495 3.568085
v -5.429230 23.695698 38.274101
v -23.270800 23.695698 28.167803
v -32.150921 23.670330 28.166256
v -23.270800 23.695698 23.114702
v -32.191498 23.695698 23.114702
v 45.373699 16.895699 12.053001
v 40.326298 16.895700 9.188901
v 37.802597 16.895700 9.188901
v 40.326298 16.895700 7.756841
v 37.802597 16.895700 7.756841
v 45.344700 -6.104261 10.637900
v 41.155300 -6.104260 6.203990
v 39.060699 -6.104260 6.203990
v 41.155300 -6.104260 3.987010
v 39.060699 -6.104260 3.987010
v 45.151402 24.095699 8.642131
v 37.438599 24.095701 2.999801
v 33.582100 24.095699 2.999801
v 37.438599 24.095701 0.178641
v 33.582100 24.095699 0.178641
v 28.349699 -33.023499 21.265598
v 29.260000 -32.973400 19.187399
v 29.715101 -32.948399 19.187399
v 29.260000 -32.973400 18.148298
v 29.715101 -32.948399 18.148298
v -0.850273 -33.623497 31.865599
v 0.060007 -33.573399 29.787397
v 0.515147 -33.548397 29.787397
v 0.060007 -33.573399 28.748299
v 0.515147 -33.548397 28.748299
v -25.712900 28.566500 0.368468
v -33.357998 19.315199 43.393501
v 41.501400 12.462099 43.973499
v 50.715401 -31.453302 41.607899
v 50.395401 -29.527302 31.792698
v 50.053959 -29.269222 25.250286
v 49.766266 -17.191278 25.110342
v 49.765400 -17.191401 13.377899
v 50.395401 -29.527300 13.377899
v 50.395401 -29.527300 2.635459
v 9.365290 24.235800 0.368468
v 43.937901 13.170699 0.368468
v 26.765200 -32.994602 12.740198
v -32.028301 0.152411 36.722599
v -36.895100 -35.484600 42.273602
v -27.012800 -34.314602 12.740198
v -26.501101 -34.150597 29.110199
v -32.028301 -25.955200 32.841599
v -32.028297 24.358898 40.921600
v 6.532360 21.417500 3.568471
v 3.491550 23.695698 38.274101
v 47.897400 16.895700 12.053001
v 47.439301 -6.104260 10.637900
v 49.007900 24.095699 8.642131
v 27.894600 -33.048599 21.265598
v -1.305410 -33.648598 31.865599
v -34.715698 19.130301 0.368468
v -16.917301 21.864302 7.248511
v 3.627090 13.572100 7.248510
v -3.292710 -11.304299 7.248509
v -23.397099 -3.012130 7.248510
v -25.479000 24.136299 43.393501
v 43.933201 24.346397 43.973499
v 50.505398 -16.791702 44.554798
v 50.342224 -28.477711 33.086308
v 50.125954 -24.399382 33.087200
v 49.751122 -20.510086 33.156666
v 49.679218 -16.319805 33.091061
v 49.922897 -20.505301 3.408559
v 50.132900 -24.399000 3.408559
v -5.399410 21.404900 0.368468
v 40.615898 8.372340 0.368467
v 32.546898 -32.825001 16.560299
v -32.012501 -6.483042 43.465199
v -14.173300 -35.315002 43.897099
v -19.352200 -34.145000 16.560299
v -23.051300 -34.043003 32.930302
v -32.012501 -29.013002 43.933102
v -32.012501 20.418997 44.023201
v 4.833120 20.419399 3.568471
v -5.371691 23.670370 43.377220
v 45.373699 16.895699 13.485101
v 45.344700 -6.104261 12.854900
v 45.151402 24.095699 11.463301
v 28.349699 -33.023499 22.304699
v -0.850273 -33.623497 32.904701
v -34.715698 28.566500 0.368468
v -33.358002 24.136299 43.393501
v 41.501400 24.346399 43.973499
v 50.715401 -31.453302 44.554798
v 50.395401 -29.527302 33.085800
v -5.399410 24.235800 0.368468
v 40.615902 13.170700 0.368468
v 26.765200 -32.994602 16.560299
v -32.028301 0.152411 43.465199
v -36.895100 -35.484604 43.897099
v -27.012800 -34.314602 16.560299
v -26.501101 -34.150597 32.930302
v -32.028301 -25.955200 43.933102
v -32.028297 24.358898 44.023201
v 4.833120 21.417500 3.568471
v 3.491466 23.695869 43.333321
v 47.897400 16.895700 13.485101
v 47.439301 -6.104260 12.854900
v 49.007900 24.095699 11.463301
v 27.894600 -33.048599 22.304699
v -1.305410 -33.648598 32.904701

vt 1.454030 3.324320
vt 1.454030 3.244570
vt 1.527027 3.324320
vt 1.527027 3.244570
vt 1.600024 3.483830
vt 1.600024 3.404080
vt 1.673021 3.483830
vt 1.673021 3.404080
vt 1.121622 3.633910
vt 1.062133 3.633910
vt 1.121622 3.621620
vt 1.062133 3.621620
vt 1.240599 3.609340
vt 1.181110 3.609340
vt 1.240599 3.597050
vt 1.181110 3.597050
vt 1.960688 3.135140
vt 1.960688 3.068890
vt 1.972973 3.135140
vt 1.972973 3.068890
vt 1.985258 3.267620
vt 1.985258 3.201380
vt 1.997543 3.267620
vt 1.997543 3.201380
vt 1.891892 3.660930
vt 1.839156 3.660930
vt 1.891892 3.648650
vt 1.839156 3.648650
vt 1.997363 3.636360
vt 1.944628 3.636360
vt 1.997363 3.624080
vt 1.944628 3.624080
vt 1.714988 3.189190
vt 1.714988 3.255430
vt 1.702703 3.189190
vt 1.702703 3.255430
vt 1.690418 3.056700
vt 1.690418 3.122950
vt 1.678133 3.056700
vt 1.678133 3.122950
vt 1.405405 3.606800
vt 1.339163 3.606800
vt 1.405405 3.567570
vt 1.339163 3.567570
vt 1.537891 3.528330
vt 1.471648 3.528330
vt 1.537891 3.489100
vt 1.471648 3.489100
vt 1.905405 3.302720
vt 1.886402 3.302720
vt 1.905405 3.202700
vt 1.886402 3.202700
vt 1.943412 3.102680
vt 1.924409 3.102680
vt 1.943412 3.002670
vt 1.924409 3.002670
vt 1.836551 3.243240
vt 1.836551 3.363530
vt 1.810811 3.243240
vt 1.810811 3.363530
vt 1.785071 3.002670
vt 1.785071 3.122960
vt 1.759331 3.002670
vt 1.759331 3.122960
vt 1.257165 3.479290
vt 1.257165 3.487900
vt 1.246709 3.479290
vt 1.246709 3.487900
vt 1.236253 3.462060
vt 1.236253 3.470670
vt 1.225797 3.462060
vt 1.225797 3.470670
vt 1.257165 3.511770
vt 1.257165 3.519400
vt 1.246709 3.511770
vt 1.246709 3.519400
vt 1.236253 3.496510
vt 1.236253 3.504140
vt 1.225797 3.496510
vt 1.225797 3.504140
vt 1.203132 3.479290
vt 1.203132 3.487900
vt 1.180466 3.479290
vt 1.180466 3.487900
vt 1.157801 3.462060
vt 1.157801 3.470670
vt 1.135135 3.462060
vt 1.135135 3.470670
vt 1.257165 3.545160
vt 1.257165 3.554220
vt 1.246709 3.545160
vt 1.246709 3.554220
vt 1.236253 3.527030
vt 1.236253 3.536090
vt 1.225797 3.527030
vt 1.225797 3.536090
vt 1.257165 3.577640
vt 1.257165 3.584820
vt 1.246709 3.577640
vt 1.246709 3.584820
vt 1.236253 3.563290
vt 1.236253 3.570460
vt 1.225797 3.563290
vt 1.225797 3.570460
vt 1.203132 3.577640
vt 1.203132 3.584820
vt 1.180466 3.577640
vt 1.180466 3.584820
vt 1.157801 3.563290
vt 1.157801 3.570460
vt 1.135135 3.563290
vt 1.135135 3.570460
vt 1.108265 3.577640
vt 1.108265 3.584820
vt 1.081395 3.577640
vt 1.081395 3.584820
vt 1.054525 3.563290
vt 1.054525 3.570460
vt 1.027655 3.563290
vt 1.027655 3.570460
vt 1.021403 3.577640
vt 1.021403 3.584820
vt 1.015152 3.577640
vt 1.015152 3.584820
vt 1.008901 3.563290
vt 1.008901 3.570460
vt 1.002650 3.563290
vt 1.002650 3.570460
vt 1.021403 3.545160
vt 1.021403 3.554220
vt 1.015152 3.545160
vt 1.015152 3.554220
vt 1.008901 3.527030
vt 1.008901 3.536090
vt 1.002650 3.527030
vt 1.002650 3.536090
vt 1.108265 3.479290
vt 1.108265 3.487900
vt 1.081395 3.479290
vt 1.081395 3.487900
vt 1.054525 3.462060
vt 1.054525 3.470670
vt 1.027655 3.462060
vt 1.027655 3.470670
vt 1.021403 3.511770
vt 1.021403 3.519400
vt 1.015152 3.511770
vt 1.015152 3.519400
vt 1.008901 3.496510
vt 1.008901 3.504140
vt 1.002650 3.496510
vt 1.002650 3.504140
vt 1.021403 3.479290
vt 1.021403 3.487900
vt 1.015152 3.479290
vt 1.015152 3.487900
vt 1.008901 3.462060
vt 1.008901 3.470670
vt 1.002650 3.462060
vt 1.002650 3.470670
vt 1.122958 3.108110
vt 1.122958 3.082370
vt 1.243243 3.108110
vt 1.243243 3.082370
vt 1.363528 3.159590
vt 1.363528 3.133850
vt 1.483813 3.159590
vt 1.483813 3.133850
vt 1.028314 3.729730
vt 1.028314 3.690500
vt 1.054054 3.729730
vt 1.054054 3.690500
vt 1.079794 3.808200
vt 1.079794 3.768960
vt 1.105534 3.808200
vt 1.105534 3.768960
vt 1.905405 3.586540
vt 1.859422 3.586540
vt 1.905405 3.554050
vt 1.859422 3.554050
vt 1.997372 3.521570
vt 1.951389 3.521570
vt 1.997372 3.489090
vt 1.951389 3.489090
vt 1.602673 3.729730
vt 1.602673 3.676990
vt 1.662162 3.729730
vt 1.662162 3.676990
vt 1.721651 3.835200
vt 1.721651 3.782470
vt 1.781140 3.835200
vt 1.781140 3.782470
vt 1.378378 3.039310
vt 1.190531 3.039310
vt 1.378378 3.027030
vt 1.190531 3.027030
vt 1.754073 3.014740
vt 1.566226 3.014740
vt 1.754073 3.002460
vt 1.566226 3.002460
vt 1.675676 3.586540
vt 1.609433 3.586540
vt 1.675676 3.554050
vt 1.609433 3.554050
vt 1.808161 3.521570
vt 1.741918 3.521570
vt 1.808161 3.489090
vt 1.741918 3.489090
vt 1.283784 3.748700
vt 1.251299 3.748700
vt 1.283784 3.716220
vt 1.251299 3.716220
vt 1.348753 3.683730
vt 1.316268 3.683730
vt 1.348753 3.651250
vt 1.316268 3.651250
vt 1.095927 3.216220
vt 1.095927 3.190480
vt 1.189189 3.216220
vt 1.189189 3.190480
vt 1.282451 3.267700
vt 1.282451 3.241960
vt 1.375714 3.267700
vt 1.375714 3.241960
vt 1.136422 3.716220
vt 1.136422 3.683730
vt 1.162162 3.716220
vt 1.162162 3.683730
vt 1.187902 3.781190
vt 1.187902 3.748700
vt 1.213642 3.781190
vt 1.213642 3.748700
vt 1.697213 3.432430
vt 1.697213 3.420150
vt 1.716216 3.432430
vt 1.716216 3.420150
vt 1.735220 3.457000
vt 1.735220 3.444720
vt 1.754223 3.457000
vt 1.754223 3.444720
vt 1.148649 3.410850
vt 1.075652 3.410850
vt 1.148649 3.364860
vt 1.075652 3.364860
vt 1.294643 3.318880
vt 1.221646 3.318880
vt 1.294643 3.272900
vt 1.221646 3.272900
vt 1.918919 3.444720
vt 1.893179 3.444720
vt 1.918919 3.432430
vt 1.893179 3.432430
vt 1.970399 3.420150
vt 1.944659 3.420150
vt 1.970399 3.407860
vt 1.944659 3.407860
vt 1.337838 3.329810
vt 1.318834 3.329810
vt 1.337838 3.310810
vt 1.318834 3.310810
vt 1.375845 3.291810
vt 1.356841 3.291810
vt 1.375845 3.272800
vt 1.356841 3.272800
vt 1.554054 3.133850
vt 1.521570 3.133850
vt 1.554054 3.108110
vt 1.521570 3.108110
vt 1.619023 3.082370
vt 1.586538 3.082370
vt 1.619023 3.056630
vt 1.586538 3.056630
vt 1.743243 3.093370
vt 1.737613 3.093370
vt 1.743243 3.081080
vt 1.737613 3.081080
vt 1.754505 3.068800
vt 1.748874 3.068800
vt 1.754505 3.056510
vt 1.748874 3.056510
vt 1.743243 3.147420
vt 1.737613 3.147420
vt 1.743243 3.135140
vt 1.737613 3.135140
vt 1.754505 3.122850
vt 1.748874 3.122850
vt 1.754505 3.110570
vt 1.748874 3.110570
vt 1.454030 3.164820
vt 1.527027 3.164820
vt 1.600024 3.324320
vt 1.673021 3.324320
vt 1.002644 3.633910
vt 1.002644 3.621620
vt 1.121622 3.609340
vt 1.121622 3.597050
vt 1.960688 3.002650
vt 1.972973 3.002650
vt 1.985258 3.135140
vt 1.997543 3.135140
vt 1.786421 3.660930
vt 1.786421 3.648650
vt 1.891892 3.636360
vt 1.891892 3.624080
vt 1.714988 3.321670
vt 1.702703 3.321670
vt 1.690418 3.189190
vt 1.678133 3.189190
vt 1.272920 3.606800
vt 1.272920 3.567570
vt 1.405405 3.528330
vt 1.405405 3.489100
vt 1.867399 3.302720
vt 1.867399 3.202700
vt 1.905405 3.102680
vt 1.905405 3.002670
vt 1.836551 3.483810
vt 1.810811 3.483810
vt 1.785071 3.243240
vt 1.759331 3.243240
vt 1.257165 3.496510
vt 1.246709 3.496510
vt 1.236253 3.479290
vt 1.225797 3.479290
vt 1.257165 3.527030
vt 1.246709 3.527030
vt 1.236253 3.511770
vt 1.225797 3.511770
vt 1.203132 3.496510
vt 1.180466 3.496510
vt 1.157801 3.479290
vt 1.135135 3.479290
vt 1.257165 3.563290
vt 1.246709 3.563290
vt 1.236253 3.545160
vt 1.225797 3.545160
vt 1.257165 3.592000
vt 1.246709 3.592000
vt 1.236253 3.577640
vt 1.225797 3.577640
vt 1.203132 3.592000
vt 1.180466 3.592000
vt 1.157801 3.577640
vt 1.135135 3.577640
vt 1.108265 3.592000
vt 1.081395 3.592000
vt 1.054525 3.577640
vt 1.027655 3.577640
vt 1.021403 3.592000
vt 1.015152 3.592000
vt 1.008901 3.577640
vt 1.002650 3.577640
vt 1.021403 3.563290
vt 1.015152 3.563290
vt 1.008901 3.545160
vt 1.002650 3.545160
vt 1.108265 3.496510
vt 1.081395 3.496510
vt 1.054525 3.479290
vt 1.027655 3.479290
vt 1.021403 3.527030
vt 1.015152 3.527030
vt 1.008901 3.511770
vt 1.002650 3.511770
vt 1.021403 3.496510
vt 1.015152 3.496510
vt 1.008901 3.479290
vt 1.002650 3.479290
vt 1.122958 3.056630
vt 1.243243 3.056630
vt 1.363528 3.108110
vt 1.483813 3.108110
vt 1.028314 3.651260
vt 1.054054 3.651260
vt 1.079794 3.729730
vt 1.105534 3.729730
vt 1.813438 3.586540
vt 1.813438 3.554050
vt 1.905405 3.521570
vt 1.905405 3.489090
vt 1.602673 3.624260
vt 1.662162 3.624260
vt 1.721651 3.729730
vt 1.781140 3.729730
vt 1.002684 3.039310
vt 1.002684 3.027030
vt 1.378378 3.014740
vt 1.378378 3.002460
vt 1.543190 3.586540
vt 1.543190 3.554050
vt 1.675676 3.521570
vt 1.675676 3.489090
vt 1.218815 3.748700
vt 1.218815 3.716220
vt 1.283784 3.683730
vt 1.283784 3.651250
vt 1.095927 3.164740
vt 1.189189 3.164740
vt 1.282451 3.216220
vt 1.375714 3.216220
vt 1.136422 3.651250
vt 1.162162 3.651250
vt 1.187902 3.716220
vt 1.213642 3.716220
vt 1.697213 3.407860
vt 1.716216 3.407860
vt 1.735220 3.432430
vt 1.754223 3.432430
vt 1.002654 3.410850
vt 1.002654 3.364860
vt 1.148649 3.318880
vt 1.148649 3.272900
vt 1.867439 3.444720
vt 1.867439 3.432430
vt 1.918919 3.420150
vt 1.918919 3.407860
vt 1.299831 3.329810
vt 1.299831 3.310810
vt 1.337838 3.291810
vt 1.337838 3.272800
vt 1.489085 3.133850
vt 1.489085 3.108110
vt 1.554054 3.082370
vt 1.554054 3.056630
vt 1.731982 3.093370
vt 1.731982 3.081080
vt 1.743243 3.068800
vt 1.743243 3.056510
vt 1.731982 3.147420
vt 1.731982 3.135140
vt 1.743243 3.122850
vt 1.743243 3.110570
vt 1.381033 3.244570
vt 1.381033 3.164820
vt 1.527027 3.404080
vt 1.062133 3.646190
vt 1.002644 3.646190
vt 1.181110 3.621620
vt 1.948403 3.068890
vt 1.948403 3.002650
vt 1.972973 3.201380
vt 1.839156 3.673220
vt 1.786421 3.673220
vt 1.944628 3.648650
vt 1.727273 3.255430
vt 1.727273 3.321670
vt 1.702703 3.122950
vt 1.339163 3.646030
vt 1.272920 3.646030
vt 1.471648 3.567570
vt 1.886402 3.402740
vt 1.867399 3.402740
vt 1.924409 3.202700
vt 1.862291 3.363530
vt 1.862291 3.483810
vt 1.810811 3.122960
vt 1.267621 3.487900
vt 1.267621 3.496510
vt 1.246709 3.470670
vt 1.267621 3.519400
vt 1.267621 3.527030
vt 1.246709 3.504140
vt 1.225797 3.487900
vt 1.180466 3.470670
vt 1.267621 3.554220
vt 1.267621 3.563290
vt 1.246709 3.536090
vt 1.267621 3.584820
vt 1.267621 3.592000
vt 1.246709 3.570460
vt 1.225797 3.584820
vt 1.225797 3.592000
vt 1.180466 3.570460
vt 1.135135 3.584820
vt 1.135135 3.592000
vt 1.081395 3.570460
vt 1.027655 3.584820
vt 1.027655 3.592000
vt 1.015152 3.570460
vt 1.027655 3.554220
vt 1.015152 3.536090
vt 1.135135 3.487900
vt 1.135135 3.496510
vt 1.081395 3.470670
vt 1.027655 3.519400
vt 1.027655 3.527030
vt 1.015152 3.504140
vt 1.027655 3.487900
vt 1.027655 3.496510
vt 1.015152 3.470670
vt 1.002673 3.082370
vt 1.002673 3.056630
vt 1.243243 3.133850
vt 1.002574 3.690500
vt 1.002574 3.651260
vt 1.054054 3.768960
vt 1.859422 3.619020
vt 1.813438 3.619020
vt 1.951389 3.554050
vt 1.543184 3.676990
vt 1.543184 3.624260
vt 1.662162 3.782470
vt 1.190531 3.051600
vt 1.002684 3.051600
vt 1.566226 3.027030
vt 1.609433 3.619020
vt 1.543190 3.619020
vt 1.741918 3.554050
vt 1.251299 3.781190
vt 1.218815 3.781190
vt 1.316268 3.716220
vt 1.002665 3.190480
vt 1.002665 3.164740
vt 1.189189 3.241960
vt 1.110682 3.683730
vt 1.110682 3.651250
vt 1.162162 3.748700
vt 1.678209 3.420150
vt 1.678209 3.407860
vt 1.716216 3.444720
vt 1.075652 3.456830
vt 1.002654 3.456830
vt 1.221646 3.364860
vt 1.893179 3.457000
vt 1.867439 3.457000
vt 1.944659 3.432430
vt 1.318834 3.348820
vt 1.299831 3.348820
vt 1.356841 3.310810
vt 1.521570 3.159590
vt 1.489085 3.159590
vt 1.586538 3.108110
vt 1.737613 3.105650
vt 1.731982 3.105650
vt 1.748874 3.081080
vt 1.737613 3.159710
vt 1.731982 3.159710
vt 1.748874 3.135140
vt 1.381033 3.324320
vt 1.527027 3.483830
vt 1.121622 3.646190
vt 1.240599 3.621620
vt 1.948403 3.135140
vt 1.972973 3.267620
vt 1.891892 3.673220
vt 1.997363 3.648650
vt 1.727273 3.189190
vt 1.702703 3.056700
vt 1.405405 3.646030
vt 1.537891 3.567570
vt 1.905405 3.402740
vt 1.943412 3.202700
vt 1.862291 3.243240
vt 1.810811 3.002670
vt 1.267621 3.479290
vt 1.246709 3.462060
vt 1.267621 3.511770
vt 1.180466 3.462060
vt 1.267621 3.545160
vt 1.267621 3.577640
vt 1.180466 3.563290
vt 1.081395 3.563290
vt 1.027655 3.545160
vt 1.081395 3.462060
vt 1.027655 3.511770
vt 1.015152 3.462060
vt 1.002673 3.108110
vt 1.243243 3.159590
vt 1.002574 3.729730
vt 1.054054 3.808200
vt 1.905405 3.619020
vt 1.997372 3.554050
vt 1.543184 3.729730
vt 1.662162 3.835200
vt 1.378378 3.051600
vt 1.754073 3.027030
vt 1.675676 3.619020
vt 1.808161 3.554050
vt 1.283784 3.781190
vt 1.348753 3.716220
vt 1.002665 3.216220
vt 1.189189 3.267700
vt 1.110682 3.716220
vt 1.162162 3.781190
vt 1.678209 3.432430
vt 1.716216 3.457000
vt 1.148649 3.456830
vt 1.294643 3.364860
vt 1.918919 3.457000
vt 1.970399 3.432430
vt 1.337838 3.348820
vt 1.375845 3.310810
vt 1.554054 3.159590
vt 1.619023 3.108110
vt 1.743243 3.105650
vt 1.754505 3.081080
vt 1.743243 3.159710
vt 1.754505 3.135140
vt 1.454030 3.404080
vt 1.600024 3.244570
vt 1.600024 3.164820
vt 1.673021 3.244570
vt 1.673021 3.164820
vt 1.181110 3.633910
vt 1.062133 3.609340
vt 1.002644 3.609340
vt 1.062133 3.597050
vt 1.002644 3.597050
vt 1.960688 3.201380
vt 1.985258 3.068890
vt 1.985258 3.002650
vt 1.997543 3.068890
vt 1.997543 3.002650
vt 1.944628 3.660930
vt 1.839156 3.636360
vt 1.786421 3.636360
vt 1.839156 3.624080
vt 1.786421 3.624080
vt 1.714988 3.122950
vt 1.690418 3.255430
vt 1.690418 3.321670
vt 1.678133 3.255430
vt 1.678133 3.321670
vt 1.471648 3.606800
vt 1.339163 3.528330
vt 1.272920 3.528330
vt 1.339163 3.489100
vt 1.272920 3.489100
vt 1.924409 3.302720
vt 1.886402 3.102680
vt 1.867399 3.102680
vt 1.886402 3.002670
vt 1.867399 3.002670
vt 1.836551 3.122960
vt 1.785071 3.363530
vt 1.785071 3.483810
vt 1.759331 3.363530
vt 1.759331 3.483810
vt 1.257165 3.470670
vt 1.236253 3.487900
vt 1.257165 3.504140
vt 1.236253 3.519400
vt 1.225797 3.519400
vt 1.203132 3.470670
vt 1.157801 3.487900
vt 1.157801 3.496510
vt 1.257165 3.536090
vt 1.236253 3.554220
vt 1.225797 3.554220
vt 1.257165 3.570460
vt 1.236253 3.584820
vt 1.236253 3.592000
vt 1.203132 3.570460
vt 1.157801 3.584820
vt 1.157801 3.592000
vt 1.108265 3.570460
vt 1.054525 3.584820
vt 1.054525 3.592000
vt 1.021403 3.570460
vt 1.008901 3.584820
vt 1.008901 3.592000
vt 1.002650 3.584820
vt 1.002650 3.592000
vt 1.021403 3.536090
vt 1.008901 3.554220
vt 1.002650 3.554220
vt 1.108265 3.470670
vt 1.054525 3.487900
vt 1.054525 3.496510
vt 1.021403 3.504140
vt 1.008901 3.519400
vt 1.002650 3.519400
vt 1.021403 3.470670
vt 1.008901 3.487900
vt 1.002650 3.487900
vt 1.122958 3.133850
vt 1.363528 3.082370
vt 1.363528 3.056630
vt 1.483813 3.082370
vt 1.483813 3.056630
vt 1.028314 3.768960
vt 1.079794 3.690500
vt 1.079794 3.651260
vt 1.105534 3.690500
vt 1.105534 3.651260
vt 1.951389 3.586540
vt 1.859422 3.521570
vt 1.813438 3.521570
vt 1.859422 3.489090
vt 1.813438 3.489090
vt 1.602673 3.782470
vt 1.721651 3.676990
vt 1.721651 3.624260
vt 1.781140 3.676990
vt 1.781140 3.624260
vt 1.566226 3.039310
vt 1.190531 3.014740
vt 1.002684 3.014740
vt 1.190531 3.002460
vt 1.002684 3.002460
vt 1.741918 3.586540
vt 1.609433 3.521570
vt 1.543190 3.521570
vt 1.609433 3.489090
vt 1.543190 3.489090
vt 1.316268 3.748700
vt 1.251299 3.683730
vt 1.218815 3.683730
vt 1.251299 3.651250
vt 1.218815 3.651250
vt 1.095927 3.241960
vt 1.282451 3.190480
vt 1.282451 3.164740
vt 1.375714 3.190480
vt 1.375714 3.164740
vt 1.136422 3.748700
vt 1.187902 3.683730
vt 1.187902 3.651250
vt 1.213642 3.683730
vt 1.213642 3.651250
vt 1.697213 3.444720
vt 1.735220 3.420150
vt 1.735220 3.407860
vt 1.754223 3.420150
vt 1.754223 3.407860
vt 1.221646 3.410850
vt 1.075652 3.318880
vt 1.002654 3.318880
vt 1.075652 3.272900
vt 1.002654 3.272900
vt 1.944659 3.444720
vt 1.893179 3.420150
vt 1.867439 3.420150
vt 1.893179 3.407860
vt 1.867439 3.407860
vt 1.356841 3.329810
vt 1.318834 3.291810
vt 1.299831 3.291810
vt 1.318834 3.272800
vt 1.299831 3.272800
vt 1.586538 3.133850
vt 1.521570 3.082370
vt 1.489085 3.082370
vt 1.521570 3.056630
vt 1.489085 3.056630
vt 1.748874 3.093370
vt 1.737613 3.068800
vt 1.731982 3.068800
vt 1.737613 3.056510
vt 1.731982 3.056510
vt 1.748874 3.147420
vt 1.737613 3.122850
vt 1.731982 3.122850
vt 1.737613 3.110570
vt 1.731982 3.110570
vt 1.454030 3.483830
vt 1.240599 3.633910
vt 1.960688 3.267620
vt 1.997363 3.660930
vt 1.714988 3.056700
vt 1.537891 3.606800
vt 1.943412 3.302720
vt 1.836551 3.002670
vt 1.257165 3.462060
vt 1.203132 3.462060
vt 1.203132 3.563290
vt 1.108265 3.563290
vt 1.108265 3.462060
vt 1.021403 3.462060
vt 1.122958 3.159590
vt 1.028314 3.808200
vt 1.997372 3.586540
vt 1.602673 3.835200
vt 1.754073 3.039310
vt 1.808161 3.586540
vt 1.348753 3.748700
vt 1.095927 3.267700
vt 1.136422 3.781190
vt 1.697213 3.457000
vt 1.294643 3.410850
vt 1.970399 3.444720
vt 1.375845 3.329810
vt 1.619023 3.133850
vt 1.754505 3.093370
vt 1.754505 3.147420
vt 1.381033 3.404080
vt 1.181110 3.646190
vt 1.948403 3.201380
vt 1.944628 3.673220
vt 1.727273 3.122950
vt 1.471648 3.646030
vt 1.924409 3.402740
vt 1.862291 3.122960
vt 1.267621 3.470670
vt 1.267621 3.504140
vt 1.267621 3.536090
vt 1.267621 3.570460
vt 1.027655 3.536090
vt 1.027655 3.504140
vt 1.002673 3.133850
vt 1.002574 3.768960
vt 1.951389 3.619020
vt 1.543184 3.782470
vt 1.566226 3.051600
vt 1.741918 3.619020
vt 1.316268 3.781190
vt 1.002665 3.241960
vt 1.110682 3.748700
vt 1.678209 3.444720
vt 1.221646 3.456830
vt 1.944659 3.457000
vt 1.356841 3.348820
vt 1.586538 3.159590
vt 1.748874 3.105650
vt 1.748874 3.159710
vt 1.381033 3.483830
vt 1.240599 3.646190
vt 1.948403 3.267620
vt 1.997363 3.673220
vt 1.727273 3.056700
vt 1.537891 3.646030
vt 1.943412 3.402740
vt 1.862291 3.002670
vt 1.267621 3.462060
vt 1.002673 3.159590
vt 1.002574 3.808200
vt 1.997372 3.619020
vt 1.543184 3.835200
vt 1.754073 3.051600
vt 1.808161 3.619020
vt 1.348753 3.781190
vt 1.002665 3.267700
vt 1.110682 3.781190
vt 1.678209 3.457000
vt 1.294643 3.456830
vt 1.970399 3.457000
vt 1.375845 3.348820
vt 1.619023 3.159590
vt 1.754505 3.105650
vt 1.754505 3.159710

f 1/1 2/2 3/3
f 4/4 3/3 2/2
f 5/5 6/6 7/7
f 8/8 7/7 6/6
f 9/9 10/10 11/11
f 12/12 11/11 10/10
f 13/13 14/14 15/15
f 16/16 15/15 14/14
f 17/17 18/18 19/19
f 20/20 19/19 18/18
f 21/21 22/22 23/23
f 24/24 23/23 22/22
f 25/25 26/26 27/27
f 28/28 27/27 26/26
f 29/29 30/30 31/31
f 32/32 31/31 30/30
f 33/33 34/34 35/35
f 36/36 35/35 34/34
f 37/37 38/38 39/39
f 40/40 39/39 38/38
f 41/41 42/42 43/43
f 44/44 43/43 42/42
f 45/45 46/46 47/47
f 48/48 47/47 46/46
f 49/49 50/50 51/51
f 52/52 51/51 50/50
f 53/53 54/54 55/55
f 56/56 55/55 54/54
f 57/57 58/58 59/59
f 60/60 59/59 58/58
f 61/61 62/62 63/63
f 64/64 63/63 62/62
f 65/65 66/66 67/67
f 68/68 67/67 66/66
f 69/69 70/70 71/71
f 72/72 71/71 70/70
f 73/73 74/74 75/75
f 76/76 75/75 74/74
f 77/77 78/78 79/79
f 80/80 79/79 78/78
f 81/81 82/82 83/83
f 84/84 83/83 82/82
f 85/85 86/86 87/87
f 88/88 87/87 86/86
f 89/89 90/90 91/91
f 92/92 91/91 90/90
f 93/93 94/94 95/95
f 96/96 95/95 94/94
f 97/97 98/98 99/99
f 100/100 99/99 98/98
f 101/101 102/102 103/103
f 104/104 103/103 102/102
f 105/105 106/106 107/107
f 108/108 107/107 106/106
f 109/109 110/110 111/111
f 112/112 111/111 110/110
f 113/113 114/114 115/115
f 116/116 115/115 114/114
f 117/117 118/118 119/119
f 120/120 119/119 118/118
f 121/121 122/122 123/123
f 124/124 123/123 122/122
f 125/125 126/126 127/127
f 128/128 127/127 126/126
f 129/129 130/130 131/131
f 132/132 131/131 130/130
f 133/133 134/134 135/135
f 136/136 135/135 134/134
f 137/137 138/138 139/139
f 140/140 139/139 138/138
f 141/141 142/142 143/143
f 144/144 143/143 142/142
f 145/145 146/146 147/147
f 148/148 147/147 146/146
f 149/149 150/150 151/151
f 152/152 151/151 150/150
f 153/153 154/154 155/155
f 156/156 155/155 154/154
f 157/157 158/158 159/159
f 160/160 159/159 158/158
f 161/161 162/162 163/163
f 164/164 163/163 162/162
f 165/165 166/166 167/167
f 168/168 167/167 166/166
f 169/169 170/170 171/171
f 172/172 171/171 170/170
f 173/173 174/174 175/175
f 176/176 175/175 174/174
f 177/177 178/178 179/179
f 180/180 179/179 178/178
f 181/181 182/182 183/183
f 184/184 183/183 182/182
f 185/185 186/186 187/187
f 188/188 187/187 186/186
f 189/189 190/190 191/191
f 192/192 191/191 190/190
f 193/193 194/194 195/195
f 196/196 195/195 194/194
f 197/197 198/198 199/199
f 200/200 199/199 198/198
f 201/201 202/202 203/203
f 204/204 203/203 202/202
f 205/205 206/206 207/207
f 208/208 207/207 206/206
f 209/209 210/210 211/211
f 212/212 211/211 210/210
f 213/213 214/214 215/215
f 216/216 215/215 214/214
f 217/217 218/218 219/219
f 220/220 219/219 218/218
f 221/221 222/222 223/223
f 224/224 223/223 222/222
f 225/225 226/226 227/227
f 228/228 227/227 226/226
f 229/229 230/230 231/231
f 232/232 231/231 230/230
f 233/233 234/234 235/235
f 236/236 235/235 234/234
f 237/237 238/238 239/239
f 240/240 239/239 238/238
f 241/241 242/242 243/243
f 244/244 243/243 242/242
f 245/245 246/246 247/247
f 248/248 247/247 246/246
f 249/249 250/250 251/251
f 252/252 251/251 250/250
f 253/253 254/254 255/255
f 256/256 255/255 254/254
f 257/257 258/258 259/259
f 260/260 259/259 258/258
f 261/261 262/262 263/263
f 264/264 263/263 262/262
f 265/265 266/266 267/267
f 268/268 267/267 266/266
f 269/269 270/270 271/271
f 272/272 271/271 270/270
f 273/273 274/274 275/275
f 276/276 275/275 274/274
f 277/277 278/278 279/279
f 280/280 279/279 278/278
f 281/281 282/282 283/283
f 284/284 283/283 282/282
f 285/285 286/286 287/287
f 288/288 287/287 286/286
f 2/2 289/289 4/4
f 290/290 4/4 289/289
f 6/6 291/291 8/8
f 292/292 8/8 291/291
f 10/10 293/293 12/12
f 294/294 12/12 293/293
f 14/14 295/295 16/16
f 296/296 16/16 295/295
f 18/18 297/297 20/20
f 298/298 20/20 297/297
f 22/22 299/299 24/24
f 300/300 24/24 299/299
f 26/26 301/301 28/28
f 302/302 28/28 301/301
f 30/30 303/303 32/32
f 304/304 32/32 303/303
f 34/34 305/305 36/36
f 306/306 36/36 305/305
f 38/38 307/307 40/40
f 308/308 40/40 307/307
f 42/42 309/309 44/44
f 310/310 44/44 309/309
f 46/46 311/311 48/48
f 312/312 48/48 311/311
f 50/50 313/313 52/52
f 314/314 52/52 313/313
f 54/54 315/315 56/56
f 316/316 56/56 315/315
f 58/58 317/317 60/60
f 318/318 60/60 317/317
f 62/62 319/319 64/64
f 320/320 64/64 319/319
f 66/66 321/321 68/68
f 322/322 68/68 321/321
f 70/70 323/323 72/72
f 324/324 72/72 323/323
f 74/74 325/325 76/76
f 326/326 76/76 325/325
f 78/78 327/327 80/80
f 328/328 80/80 327/327
f 82/82 329/329 84/84
f 330/330 84/84 329/329
f 86/86 331/331 88/88
f 332/332 88/88 331/331
f 90/90 333/333 92/92
f 334/334 92/92 333/333
f 94/94 335/335 96/96
f 336/336 96/96 335/335
f 98/98 337/337 100/100
f 338/338 100/100 337/337
f 102/102 339/339 104/104
f 340/340 104/104 339/339
f 106/106 341/341 108/108
f 342/342 108/108 341/341
f 110/110 343/343 112/112
f 344/344 112/112 343/343
f 114/114 345/345 116/116
f 346/346 116/116 345/345
f 118/118 347/347 120/120
f 348/348 120/120 347/347
f 122/122 349/349 124/124
f 350/350 124/124 349/349
f 126/126 351/351 128/128
f 352/352 128/128 351/351
f 130/130 353/353 132/132
f 354/354 132/132 353/353
f 134/134 355/355 136/136
f 356/356 136/136 355/355
f 138/138 357/357 140/140
f 358/358 140/140 357/357
f 142/142 359/359 144/144
f 360/360 144/144 359/359
f 146/146 361/361 148/148
f 362/362 148/148 361/361
f 150/150 363/363 152/152
f 364/364 152/152 363/363
f 154/154 365/365 156/156
f 366/366 156/156 365/365
f 158/158 367/367 160/160
f 368/368 160/160 367/367
f 162/162 369/369 164/164
f 370/370 164/164 369/369
f 166/166 371/371 168/168
f 372/372 168/168 371/371
f 170/170 373/373 172/172
f 374/374 172/172 373/373
f 174/174 375/375 176/176
f 376/376 176/176 375/375
f 178/178 377/377 180/180
f 378/378 180/180 377/377
f 182/182 379/379 184/184
f 380/380 184/184 379/379
f 186/186 381/381 188/188
f 382/382 188/188 381/381
f 190/190 383/383 192/192
f 384/384 192/192 383/383
f 194/194 385/385 196/196
f 386/386 196/196 385/385
f 198/198 387/387 200/200
f 388/388 200/200 387/387
f 202/202 389/389 204/204
f 390/390 204/204 389/389
f 206/206 391/391 208/208
f 392/392 208/208 391/391
f 210/210 393/393 212/212
f 394/394 212/212 393/393
f 214/214 395/395 216/216
f 396/396 216/216 395/395
f 218/218 397/397 220/220
f 398/398 220/220 397/397
f 222/222 399/399 224/224
f 400/400 224/224 399/399
f 226/226 401/401 228/228
f 402/402 228/228 401/401
f 230/230 403/403 232/232
f 404/404 232/232 403/403
f 234/234 405/405 236/236
f 406/406 236/236 405/405
f 238/238 407/407 240/240
f 408/408 240/240 407/407
f 242/242 409/409 244/244
f 410/410 244/244 409/409
f 246/246 411/411 248/248
f 412/412 248/248 411/411
f 250/250 413/413 252/252
f 414/414 252/252 413/413
f 254/254 415/415 256/256
f 416/416 256/256 415/415
f 258/258 417/417 260/260
f 418/418 260/260 417/417
f 262/262 419/419 264/264
f 420/420 264/264 419/419
f 266/266 421/421 268/268
f 422/422 268/268 421/421
f 270/270 423/423 272/272
f 424/424 272/272 423/423
f 274/274 425/425 276/276
f 426/426 276/276 425/425
f 278/278 427/427 280/280
f 428/428 280/280 427/427
f 282/282 429/429 284/284
f 430/430 284/284 429/429
f 286/286 431/431 288/288
f 432/432 288/288 431/431
f 433/433 434/434 2/2
f 289/289 2/2 434/434
f 435/435 3/3 6/6
f 291/291 6/6 3/3
f 436/436 437/437 10/10
f 293/293 10/10 437/437
f 438/438 11/11 14/14
f 295/295 14/14 11/11
f 439/439 440/440 18/18
f 297/297 18/18 440/440
f 441/441 19/19 22/22
f 299/299 22/22 19/19
f 442/442 443/443 26/26
f 301/301 26/26 443/443
f 444/444 27/27 30/30
f 303/303 30/30 27/27
f 445/445 446/446 34/34
f 305/305 34/34 446/446
f 447/447 35/35 38/38
f 307/307 38/38 35/35
f 448/448 449/449 42/42
f 309/309 42/42 449/449
f 450/450 43/43 46/46
f 311/311 46/46 43/43
f 451/451 452/452 50/50
f 313/313 50/50 452/452
f 453/453 51/51 54/54
f 315/315 54/54 51/51
f 454/454 455/455 58/58
f 317/317 58/58 455/455
f 456/456 59/59 62/62
f 319/319 62/62 59/59
f 457/457 458/458 66/66
f 321/321 66/66 458/458
f 459/459 67/67 70/70
f 323/323 70/70 67/67
f 460/460 461/461 74/74
f 325/325 74/74 461/461
f 462/462 75/75 78/78
f 327/327 78/78 75/75
f 463/463 79/79 82/82
f 329/329 82/82 79/79
f 464/464 83/83 86/86
f 331/331 86/86 83/83
f 465/465 466/466 90/90
f 333/333 90/90 466/466
f 467/467 91/91 94/94
f 335/335 94/94 91/91
f 468/468 469/469 98/98
f 337/337 98/98 469/469
f 470/470 99/99 102/102
f 339/339 102/102 99/99
f 471/471 472/472 106/106
f 341/341 106/106 472/472
f 473/473 107/107 110/110
f 343/343 110/110 107/107
f 474/474 475/475 114/114
f 345/345 114/114 475/475
f 476/476 115/115 118/118
f 347/347 118/118 115/115
f 477/477 478/478 122/122
f 349/349 122/122 478/478
f 479/479 123/123 126/126
f 351/351 126/126 123/123
f 480/480 119/119 130/130
f 353/353 130/130 119/119
f 481/481 131/131 134/134
f 355/355 134/134 131/131
f 482/482 483/483 138/138
f 357/357 138/138 483/483
f 484/484 139/139 142/142
f 359/359 142/142 139/139
f 485/485 486/486 146/146
f 361/361 146/146 486/486
f 487/487 147/147 150/150
f 363/363 150/150 147/147
f 488/488 489/489 154/154
f 365/365 154/154 489/489
f 490/490 155/155 158/158
f 367/367 158/158 155/155
f 491/491 492/492 162/162
f 369/369 162/162 492/492
f 493/493 163/163 166/166
f 371/371 166/166 163/163
f 494/494 495/495 170/170
f 373/373 170/170 495/495
f 496/496 171/171 174/174
f 375/375 174/174 171/171
f 497/497 498/498 178/178
f 377/377 178/178 498/498
f 499/499 179/179 182/182
f 379/379 182/182 179/179
f 500/500 501/501 186/186
f 381/381 186/186 501/501
f 502/502 187/187 190/190
f 383/383 190/190 187/187
f 503/503 504/504 194/194
f 385/385 194/194 504/504
f 505/505 195/195 198/198
f 387/387 198/198 195/195
f 506/506 507/507 202/202
f 389/389 202/202 507/507
f 508/508 203/203 206/206
f 391/391 206/206 203/203
f 509/509 510/510 210/210
f 393/393 210/210 510/510
f 511/511 211/211 214/214
f 395/395 214/214 211/211
f 512/512 513/513 218/218
f 397/397 218/218 513/513
f 514/514 219/219 222/222
f 399/399 222/222 219/219
f 515/515 516/516 226/226
f 401/401 226/226 516/516
f 517/517 227/227 230/230
f 403/403 230/230 227/227
f 518/518 519/519 234/234
f 405/405 234/234 519/519
f 520/520 235/235 238/238
f 407/407 238/238 235/235
f 521/521 522/522 242/242
f 409/409 242/242 522/522
f 523/523 243/243 246/246
f 411/411 246/246 243/243
f 524/524 525/525 250/250
f 413/413 250/250 525/525
f 526/526 251/251 254/254
f 415/415 254/254 251/251
f 527/527 528/528 258/258
f 417/417 258/258 528/528
f 529/529 259/259 262/262
f 419/419 262/262 259/259
f 530/530 531/531 266/266
f 421/421 266/266 531/531
f 532/532 267/267 270/270
f 423/423 270/270 267/267
f 533/533 534/534 274/274
f 425/425 274/274 534/534
f 535/535 275/275 278/278
f 427/427 278/278 275/275
f 536/536 537/537 282/282
f 429/429 282/282 537/537
f 538/538 283/283 286/286
f 431/431 286/286 283/283
f 539/539 433/433 1/1
f 2/2 1/1 433/433
f 540/540 435/435 5/5
f 6/6 5/5 435/435
f 541/541 436/436 9/9
f 10/10 9/9 436/436
f 306/542 438/438 13/13
f 14/14 13/13 438/438
f 542/543 439/439 17/17
f 18/18 17/17 439/439
f 294/544 441/441 21/21
f 22/22 21/21 441/441
f 543/545 442/442 25/25
f 26/26 25/25 442/442
f 298/546 444/444 29/29
f 30/30 29/29 444/444
f 544/547 445/445 33/33
f 34/34 33/33 445/445
f 302/548 447/447 37/37
f 38/38 37/37 447/447
f 545/549 448/448 41/41
f 42/42 41/41 448/448
f 546/550 450/450 45/45
f 46/46 45/45 450/450
f 547/551 451/451 49/49
f 50/50 49/49 451/451
f 548/552 453/453 53/53
f 54/54 53/53 453/453
f 549/553 454/454 57/57
f 58/58 57/57 454/454
f 550/554 456/456 61/61
f 62/62 61/61 456/456
f 551/555 457/457 65/65
f 66/66 65/65 457/457
f 552/556 459/459 69/69
f 70/70 69/69 459/459
f 553/557 460/460 73/73
f 74/74 73/73 460/460
f 322/322 462/462 77/77
f 78/78 77/77 462/462
f 324/324 463/463 81/81
f 82/82 81/81 463/463
f 554/558 464/464 85/85
f 86/86 85/85 464/464
f 555/559 465/465 89/89
f 90/90 89/89 465/465
f 326/326 467/467 93/93
f 94/94 93/93 467/467
f 556/560 468/468 97/97
f 98/98 97/97 468/468
f 334/334 470/470 101/101
f 102/102 101/101 470/470
f 340/340 471/471 105/105
f 106/106 105/105 471/471
f 557/561 473/473 109/109
f 110/110 109/109 473/473
f 344/344 474/474 113/113
f 114/114 113/113 474/474
f 558/562 476/476 117/117
f 118/118 117/117 476/476
f 348/348 477/477 121/121
f 122/122 121/121 477/477
f 354/354 479/479 125/125
f 126/126 125/125 479/479
f 559/563 480/480 129/129
f 130/130 129/129 480/480
f 362/362 481/481 133/133
f 134/134 133/133 481/481
f 332/332 482/482 137/137
f 138/138 137/137 482/482
f 560/564 484/484 141/141
f 142/142 141/141 484/484
f 561/565 485/485 145/145
f 146/146 145/145 485/485
f 366/366 487/487 149/149
f 150/150 149/149 487/487
f 360/360 488/488 153/153
f 154/154 153/153 488/488
f 562/566 490/490 157/157
f 158/158 157/157 490/490
f 563/567 491/491 161/161
f 162/162 161/161 491/491
f 564/568 493/493 165/165
f 166/166 165/165 493/493
f 565/569 494/494 169/169
f 170/170 169/169 494/494
f 566/570 496/496 173/173
f 174/174 173/173 496/496
f 567/571 497/497 177/177
f 178/178 177/177 497/497
f 568/572 499/499 181/181
f 182/182 181/181 499/499
f 569/573 500/500 185/185
f 186/186 185/185 500/500
f 570/574 502/502 189/189
f 190/190 189/189 502/502
f 571/575 503/503 193/193
f 194/194 193/193 503/503
f 572/576 505/505 197/197
f 198/198 197/197 505/505
f 573/577 506/506 201/201
f 202/202 201/201 506/506
f 574/578 508/508 205/205
f 206/206 205/205 508/508
f 575/579 509/509 209/209
f 210/210 209/209 509/509
f 576/580 511/511 213/213
f 214/214 213/213 511/511
f 577/581 512/512 217/217
f 218/218 217/217 512/512
f 578/582 514/514 221/221
f 222/222 221/221 514/514
f 579/583 515/515 225/225
f 226/226 225/225 515/515
f 580/584 517/517 229/229
f 230/230 229/229 517/517
f 581/585 518/518 233/233
f 234/234 233/233 518/518
f 582/586 520/520 237/237
f 238/238 237/237 520/520
f 583/587 521/521 241/241
f 242/242 241/241 521/521
f 584/588 523/523 245/245
f 246/246 245/245 523/523
f 585/589 524/524 249/249
f 250/250 249/249 524/524
f 586/590 526/526 253/253
f 254/254 253/253 526/526
f 587/591 527/527 257/257
f 258/258 257/257 527/527
f 588/592 529/529 261/261
f 262/262 261/261 529/529
f 589/593 530/530 265/265
f 266/266 265/265 530/530
f 590/594 532/532 269/269
f 270/270 269/269 532/532
f 591/595 533/533 273/273
f 274/274 273/273 533/533
f 592/596 535/535 277/277
f 278/278 277/277 535/535
f 593/597 536/536 281/281
f 282/282 281/281 536/536
f 594/598 538/538 285/285
f 286/286 285/285 538/538
f 595/599 1/1 435/435
f 3/3 435/435 1/1
f 596/600 597/601 598/602
f 599/603 598/602 597/601
f 600/604 9/9 438/438
f 11/11 438/438 9/9
f 601/605 21/606 602/607
f 23/608 602/607 21/606
f 603/609 17/17 441/441
f 19/19 441/441 17/17
f 604/610 29/611 605/612
f 31/613 605/612 29/611
f 606/614 25/25 444/444
f 27/27 444/444 25/25
f 607/615 37/616 608/617
f 39/618 608/617 37/616
f 609/619 33/33 447/447
f 35/35 447/447 33/33
f 610/620 13/621 611/622
f 15/623 611/622 13/621
f 612/624 41/41 450/450
f 43/43 450/450 41/41
f 613/625 614/626 615/627
f 616/628 615/627 614/626
f 617/629 49/49 453/453
f 51/51 453/453 49/49
f 618/630 619/631 620/632
f 621/633 620/632 619/631
f 622/634 57/57 456/456
f 59/59 456/456 57/57
f 623/635 624/636 625/637
f 626/638 625/637 624/636
f 627/639 65/65 459/459
f 67/67 459/459 65/65
f 628/640 77/77 463/463
f 79/79 463/463 77/77
f 629/641 73/73 462/462
f 75/75 462/462 73/73
f 630/642 93/93 631/643
f 95/95 631/643 93/93
f 632/644 81/81 464/464
f 83/83 464/464 81/81
f 633/645 634/646 482/482
f 483/483 482/482 634/646
f 635/647 89/89 467/467
f 91/91 467/467 89/89
f 636/648 101/101 637/649
f 103/103 637/649 101/101
f 638/650 97/97 470/470
f 99/99 470/470 97/97
f 639/651 640/652 471/471
f 472/472 471/471 640/652
f 641/653 105/105 473/473
f 107/107 473/473 105/105
f 642/654 643/655 474/474
f 475/475 474/474 643/655
f 644/656 113/113 476/476
f 115/115 476/476 113/113
f 645/657 646/658 477/477
f 478/478 477/477 646/658
f 647/659 121/121 479/479
f 123/123 479/479 121/121
f 648/660 649/661 650/662
f 651/663 650/662 649/661
f 652/664 129/129 481/481
f 131/131 481/481 129/129
f 653/665 125/125 654/666
f 127/127 654/666 125/125
f 655/667 137/137 484/484
f 139/139 484/484 137/137
f 656/668 657/669 488/488
f 489/489 488/488 657/669
f 658/670 145/145 487/487
f 147/147 487/487 145/145
f 659/671 133/133 660/672
f 135/135 660/672 133/133
f 661/673 153/153 490/490
f 155/155 490/490 153/153
f 662/674 149/149 663/675
f 151/151 663/675 149/149
f 664/676 161/161 493/493
f 163/163 493/493 161/161
f 665/677 666/678 667/679
f 668/680 667/679 666/678
f 669/681 169/169 496/496
f 171/171 496/496 169/169
f 670/682 671/683 672/684
f 673/685 672/684 671/683
f 674/686 177/177 499/499
f 179/179 499/499 177/177
f 675/687 676/688 677/689
f 678/690 677/689 676/688
f 679/691 185/185 502/502
f 187/187 502/502 185/185
f 680/692 681/693 682/694
f 683/695 682/694 681/693
f 684/696 193/193 505/505
f 195/195 505/505 193/193
f 685/697 686/698 687/699
f 688/700 687/699 686/698
f 689/701 201/201 508/508
f 203/203 508/508 201/201
f 690/702 691/703 692/704
f 693/705 692/704 691/703
f 694/706 209/209 511/511
f 211/211 511/511 209/209
f 695/707 696/708 697/709
f 698/710 697/709 696/708
f 699/711 217/217 514/514
f 219/219 514/514 217/217
f 700/712 701/713 702/714
f 703/715 702/714 701/713
f 704/716 225/225 517/517
f 227/227 517/517 225/225
f 705/717 706/718 707/719
f 708/720 707/719 706/718
f 709/721 233/233 520/520
f 235/235 520/520 233/233
f 710/722 711/723 712/724
f 713/725 712/724 711/723
f 714/726 241/241 523/523
f 243/243 523/523 241/241
f 715/727 716/728 717/729
f 718/730 717/729 716/728
f 719/731 249/249 526/526
f 251/251 526/526 249/249
f 720/732 721/733 722/734
f 723/735 722/734 721/733
f 724/736 257/257 529/529
f 259/259 529/529 257/257
f 725/737 726/738 727/739
f 728/740 727/739 726/738
f 729/741 265/265 532/532
f 267/267 532/532 265/265
f 730/742 731/743 732/744
f 733/745 732/744 731/743
f 734/746 273/273 535/535
f 275/275 535/535 273/273
f 735/747 736/748 737/749
f 738/750 737/749 736/748
f 739/751 281/281 538/538
f 283/283 538/538 281/281
f 740/752 741/753 742/754
f 743/755 742/754 741/753
f 744/756 595/599 540/540
f 435/435 540/540 595/599
f 291/291 596/600 292/292
f 598/602 292/292 596/600
f 305/757 600/604 306/542
f 438/438 306/542 600/604
f 295/295 601/605 296/296
f 602/607 296/296 601/605
f 293/758 603/609 294/544
f 441/441 294/544 603/609
f 299/299 604/610 300/300
f 605/612 300/300 604/610
f 297/759 606/614 298/546
f 444/444 298/546 606/614
f 303/303 607/615 304/304
f 608/617 304/304 607/615
f 301/760 609/619 302/548
f 447/447 302/548 609/619
f 307/307 610/620 308/308
f 611/622 308/308 610/620
f 745/761 612/624 546/550
f 450/450 546/550 612/624
f 311/311 613/625 312/312
f 615/627 312/312 613/625
f 746/762 617/629 548/552
f 453/453 548/552 617/629
f 315/315 618/630 316/316
f 620/632 316/316 618/630
f 747/763 622/634 550/554
f 456/456 550/554 622/634
f 319/319 623/635 320/320
f 625/637 320/320 623/635
f 748/764 627/639 552/556
f 459/459 552/556 627/639
f 323/323 628/640 324/324
f 463/463 324/324 628/640
f 321/321 629/641 322/322
f 462/462 322/322 629/641
f 327/327 630/642 328/328
f 631/643 328/328 630/642
f 749/765 632/644 554/558
f 464/464 554/558 632/644
f 331/331 633/645 332/332
f 482/482 332/332 633/645
f 325/325 635/647 326/326
f 467/467 326/326 635/647
f 335/335 636/648 336/336
f 637/649 336/336 636/648
f 333/333 638/650 334/334
f 470/470 334/334 638/650
f 339/339 639/651 340/340
f 471/471 340/340 639/651
f 750/766 641/653 557/561
f 473/473 557/561 641/653
f 343/343 642/654 344/344
f 474/474 344/344 642/654
f 751/767 644/656 558/562
f 476/476 558/562 644/656
f 347/347 645/657 348/348
f 477/477 348/348 645/657
f 353/353 647/659 354/354
f 479/479 354/354 647/659
f 351/351 648/660 352/352
f 650/662 352/352 648/660
f 361/361 652/664 362/362
f 481/481 362/362 652/664
f 355/355 653/665 356/356
f 654/666 356/356 653/665
f 752/768 655/667 560/564
f 484/484 560/564 655/667
f 359/359 656/668 360/360
f 488/488 360/360 656/668
f 365/365 658/670 366/366
f 487/487 366/366 658/670
f 363/363 659/671 364/364
f 660/672 364/364 659/671
f 753/769 661/673 562/566
f 490/490 562/566 661/673
f 367/367 662/674 368/368
f 663/675 368/368 662/674
f 754/770 664/676 564/568
f 493/493 564/568 664/676
f 371/371 665/677 372/372
f 667/679 372/372 665/677
f 755/771 669/681 566/570
f 496/496 566/570 669/681
f 375/375 670/682 376/376
f 672/684 376/376 670/682
f 756/772 674/686 568/572
f 499/499 568/572 674/686
f 379/379 675/687 380/380
f 677/689 380/380 675/687
f 757/773 679/691 570/574
f 502/502 570/574 679/691
f 383/383 680/692 384/384
f 682/694 384/384 680/692
f 758/774 684/696 572/576
f 505/505 572/576 684/696
f 387/387 685/697 388/388
f 687/699 388/388 685/697
f 759/775 689/701 574/578
f 508/508 574/578 689/701
f 391/391 690/702 392/392
f 692/704 392/392 690/702
f 760/776 694/706 576/580
f 511/511 576/580 694/706
f 395/395 695/707 396/396
f 697/709 396/396 695/707
f 761/777 699/711 578/582
f 514/514 578/582 699/711
f 399/399 700/712 400/400
f 702/714 400/400 700/712
f 762/778 704/716 580/584
f 517/517 580/584 704/716
f 403/403 705/717 404/404
f 707/719 404/404 705/717
f 763/779 709/721 582/586
f 520/520 582/586 709/721
f 407/407 710/722 408/408
f 712/724 408/408 710/722
f 764/780 714/726 584/588
f 523/523 584/588 714/726
f 411/411 715/727 412/412
f 717/729 412/412 715/727
f 765/781 719/731 586/590
f 526/526 586/590 719/731
f 415/415 720/732 416/416
f 722/734 416/416 720/732
f 766/782 724/736 588/592
f 529/529 588/592 724/736
f 419/419 725/737 420/420
f 727/739 420/420 725/737
f 767/783 729/741 590/594
f 532/532 590/594 729/741
f 423/423 730/742 424/424
f 732/744 424/424 730/742
f 768/784 734/746 592/596
f 535/535 592/596 734/746
f 427/427 735/747 428/428
f 737/749 428/428 735/747
f 769/785 739/751 594/598
f 538/538 594/598 739/751
f 431/431 740/752 432/432
f 742/754 432/432 740/752
f 770/786 539/539 595/599
f 1/1 595/599 539/539
f 4/4 290/290 596/600
f 597/601 596/600 290/290
f 771/787 541/541 600/604
f 9/9 600/604 541/541
f 12/12 294/294 601/605
f 21/606 601/605 294/294
f 772/788 542/543 603/609
f 17/17 603/609 542/543
f 20/20 298/298 604/610
f 29/611 604/610 298/298
f 773/789 543/545 606/614
f 25/25 606/614 543/545
f 28/28 302/302 607/615
f 37/616 607/615 302/302
f 774/790 544/547 609/619
f 33/33 609/619 544/547
f 36/36 306/306 610/620
f 13/621 610/620 306/306
f 775/791 545/549 612/624
f 41/41 612/624 545/549
f 44/44 310/310 613/625
f 614/626 613/625 310/310
f 776/792 547/551 617/629
f 49/49 617/629 547/551
f 52/52 314/314 618/630
f 619/631 618/630 314/314
f 777/793 549/553 622/634
f 57/57 622/634 549/553
f 60/60 318/318 623/635
f 624/636 623/635 318/318
f 778/794 551/555 627/639
f 65/65 627/639 551/555
f 68/68 322/322 628/640
f 77/77 628/640 322/322
f 779/795 553/557 629/641
f 73/73 629/641 553/557
f 76/76 326/326 630/642
f 93/93 630/642 326/326
f 72/72 324/324 632/644
f 81/81 632/644 324/324
f 84/84 330/330 633/645
f 634/646 633/645 330/330
f 780/796 555/559 635/647
f 89/89 635/647 555/559
f 92/92 334/334 636/648
f 101/101 636/648 334/334
f 781/797 556/560 638/650
f 97/97 638/650 556/560
f 100/100 338/338 639/651
f 640/652 639/651 338/338
f 104/104 340/340 641/653
f 105/105 641/653 340/340
f 108/108 342/342 642/654
f 643/655 642/654 342/342
f 112/112 344/344 644/656
f 113/113 644/656 344/344
f 116/116 346/346 645/657
f 646/658 645/657 346/346
f 120/120 348/348 647/659
f 121/121 647/659 348/348
f 124/124 350/350 648/660
f 649/661 648/660 350/350
f 782/798 559/563 652/664
f 129/129 652/664 559/563
f 132/132 354/354 653/665
f 125/125 653/665 354/354
f 88/88 332/332 655/667
f 137/137 655/667 332/332
f 140/140 358/358 656/668
f 657/669 656/668 358/358
f 783/799 561/565 658/670
f 145/145 658/670 561/565
f 148/148 362/362 659/671
f 133/133 659/671 362/362
f 144/144 360/360 661/673
f 153/153 661/673 360/360
f 156/156 366/366 662/674
f 149/149 662/674 366/366
f 784/800 563/567 664/676
f 161/161 664/676 563/567
f 164/164 370/370 665/677
f 666/678 665/677 370/370
f 785/801 565/569 669/681
f 169/169 669/681 565/569
f 172/172 374/374 670/682
f 671/683 670/682 374/374
f 786/802 567/571 674/686
f 177/177 674/686 567/571
f 180/180 378/378 675/687
f 676/688 675/687 378/378
f 787/803 569/573 679/691
f 185/185 679/691 569/573
f 188/188 382/382 680/692
f 681/693 680/692 382/382
f 788/804 571/575 684/696
f 193/193 684/696 571/575
f 196/196 386/386 685/697
f 686/698 685/697 386/386
f 789/805 573/577 689/701
f 201/201 689/701 573/577
f 204/204 390/390 690/702
f 691/703 690/702 390/390
f 790/806 575/579 694/706
f 209/209 694/706 575/579
f 212/212 394/394 695/707
f 696/708 695/707 394/394
f 791/807 577/581 699/711
f 217/217 699/711 577/581
f 220/220 398/398 700/712
f 701/713 700/712 398/398
f 792/808 579/583 704/716
f 225/225 704/716 579/583
f 228/228 402/402 705/717
f 706/718 705/717 402/402
f 793/809 581/585 709/721
f 233/233 709/721 581/585
f 236/236 406/406 710/722
f 711/723 710/722 406/406
f 794/810 583/587 714/726
f 241/241 714/726 583/587
f 244/244 410/410 715/727
f 716/728 715/727 410/410
f 795/811 585/589 719/731
f 249/249 719/731 585/589
f 252/252 414/414 720/732
f 721/733 720/732 414/414
f 796/812 587/591 724/736
f 257/257 724/736 587/591
f 260/260 418/418 725/737
f 726/738 725/737 418/418
f 797/813 589/593 729/741
f 265/265 729/741 589/593
f 268/268 422/422 730/742
f 731/743 730/742 422/422
f 798/814 591/595 734/746
f 273/273 734/746 591/595
f 276/276 426/426 735/747
f 736/748 735/747 426/426
f 799/815 593/597 739/751
f 281/281 739/751 593/597
f 284/284 430/430 740/752
f 741/753 740/752 430/430
f 800/816 770/786 744/756
f 595/599 744/756 770/786
f 3/3 4/4 291/291
f 596/600 291/291 4/4
f 446/817 771/787 305/757
f 600/604 305/757 771/787
f 11/11 12/12 295/295
f 601/605 295/295 12/12
f 437/818 772/788 293/758
f 603/609 293/758 772/788
f 19/19 20/20 299/299
f 604/610 299/299 20/20
f 440/819 773/789 297/759
f 606/614 297/759 773/789
f 27/27 28/28 303/303
f 607/615 303/303 28/28
f 443/820 774/790 301/760
f 609/619 301/760 774/790
f 35/35 36/36 307/307
f 610/620 307/307 36/36
f 801/821 775/791 745/761
f 612/624 745/761 775/791
f 43/43 44/44 311/311
f 613/625 311/311 44/44
f 802/822 776/792 746/762
f 617/629 746/762 776/792
f 51/51 52/52 315/315
f 618/630 315/315 52/52
f 803/823 777/793 747/763
f 622/634 747/763 777/793
f 59/59 60/60 319/319
f 623/635 319/319 60/60
f 804/824 778/794 748/764
f 627/639 748/764 778/794
f 67/67 68/68 323/323
f 628/640 323/323 68/68
f 458/458 779/795 321/321
f 629/641 321/321 779/795
f 75/75 76/76 327/327
f 630/642 327/327 76/76
f 71/71 72/72 749/765
f 632/644 749/765 72/72
f 83/83 84/84 331/331
f 633/645 331/331 84/84
f 461/461 780/796 325/325
f 635/647 325/325 780/796
f 91/91 92/92 335/335
f 636/648 335/335 92/92
f 466/466 781/797 333/333
f 638/650 333/333 781/797
f 99/99 100/100 339/339
f 639/651 339/339 100/100
f 103/103 104/104 750/766
f 641/653 750/766 104/104
f 107/107 108/108 343/343
f 642/654 343/343 108/108
f 111/111 112/112 751/767
f 644/656 751/767 112/112
f 115/115 116/116 347/347
f 645/657 347/347 116/116
f 119/119 120/120 353/353
f 647/659 353/353 120/120
f 123/123 124/124 351/351
f 648/660 351/351 124/124
f 486/486 782/798 361/361
f 652/664 361/361 782/798
f 131/131 132/132 355/355
f 653/665 355/355 132/132
f 87/87 88/88 752/768
f 655/667 752/768 88/88
f 139/139 140/140 359/359
f 656/668 359/359 140/140
f 489/489 783/799 365/365
f 658/670 365/365 783/799
f 147/147 148/148 363/363
f 659/671 363/363 148/148
f 143/143 144/144 753/769
f 661/673 753/769 144/144
f 155/155 156/156 367/367
f 662/674 367/367 156/156
f 805/825 784/800 754/770
f 664/676 754/770 784/800
f 163/163 164/164 371/371
f 665/677 371/371 164/164
f 806/826 785/801 755/771
f 669/681 755/771 785/801
f 171/171 172/172 375/375
f 670/682 375/375 172/172
f 807/827 786/802 756/772
f 674/686 756/772 786/802
f 179/179 180/180 379/379
f 675/687 379/379 180/180
f 808/828 787/803 757/773
f 679/691 757/773 787/803
f 187/187 188/188 383/383
f 680/692 383/383 188/188
f 809/829 788/804 758/774
f 684/696 758/774 788/804
f 195/195 196/196 387/387
f 685/697 387/387 196/196
f 810/830 789/805 759/775
f 689/701 759/775 789/805
f 203/203 204/204 391/391
f 690/702 391/391 204/204
f 811/831 790/806 760/776
f 694/706 760/776 790/806
f 211/211 212/212 395/395
f 695/707 395/395 212/212
f 812/832 791/807 761/777
f 699/711 761/777 791/807
f 219/219 220/220 399/399
f 700/712 399/399 220/220
f 813/833 792/808 762/778
f 704/716 762/778 792/808
f 227/227 228/228 403/403
f 705/717 403/403 228/228
f 814/834 793/809 763/779
f 709/721 763/779 793/809
f 235/235 236/236 407/407
f 710/722 407/407 236/236
f 815/835 794/810 764/780
f 714/726 764/780 794/810
f 243/243 244/244 411/411
f 715/727 411/411 244/244
f 816/836 795/811 765/781
f 719/731 765/781 795/811
f 251/251 252/252 415/415
f 720/732 415/415 252/252
f 817/837 796/812 766/782
f 724/736 766/782 796/812
f 259/259 260/260 419/419
f 725/737 419/419 260/260
f 818/838 797/813 767/783
f 729/741 767/783 797/813
f 267/267 268/268 423/423
f 730/742 423/423 268/268
f 819/839 798/814 768/784
f 734/746 768/784 798/814
f 275/275 276/276 427/427
f 735/747 427/427 276/276
f 820/840 799/815 769/785
f 739/751 769/785 799/815
f 283/283 284/284 431/431
f 740/752 431/431 284/284
